<svg width="100" height="100" viewBox="0 0 100 100" fill="none" xmlns="http://www.w3.org/2000/svg">
<path d="M0 20C0 8.9543 8.95431 0 20 0H80C91.0457 0 100 8.95431 100 20V80C100 91.0457 91.0457 100 80 100H20C8.9543 100 0 91.0457 0 80V20Z" fill="#3856BB"/>
<path d="M16.544 75.456C15.424 75.456 14.528 75.344 13.856 75.12C13.184 74.896 12.64 74.576 12.224 74.16C11.744 73.68 11.408 73.12 11.216 72.48C11.024 71.84 10.928 70.96 10.928 69.84V40.8C10.928 39.68 11.024 38.8 11.216 38.16C11.408 37.52 11.744 36.976 12.224 36.528C12.64 36.08 13.184 35.744 13.856 35.52C14.528 35.296 15.424 35.184 16.544 35.184H17.936V38.16H16.784C16.112 38.16 15.6 38.176 15.248 38.208C14.896 38.24 14.624 38.368 14.432 38.592C14.208 38.816 14.064 39.168 14 39.648C13.936 40.096 13.904 40.672 13.904 41.376V69.456C13.904 70.192 13.936 70.768 14 71.184C14.064 71.568 14.208 71.872 14.432 72.096C14.624 72.32 14.896 72.448 15.248 72.48C15.6 72.512 16.112 72.528 16.784 72.528H17.936V75.456H16.544Z" fill="white"/>
<path d="M21.1186 72C21.2466 67.9467 21.332 63.9147 21.3746 59.904C21.4173 55.8507 21.4386 52.0107 21.4386 48.384C21.4386 43.2213 21.396 38.3147 21.3106 33.664C21.268 29.0133 21.204 24.3413 21.1186 19.648C23.2093 19.4347 25.3 19.264 27.3906 19.136C29.524 18.9653 31.6786 18.88 33.8546 18.88C36.9693 18.88 39.892 19.1147 42.6226 19.584C45.3533 20.0107 47.7213 20.8427 49.7266 22.08C51.732 23.2747 53.3106 24.9387 54.4626 27.072C55.6573 29.2053 56.2546 31.9573 56.2546 35.328C56.2546 39.5093 55.38 42.7947 53.6306 45.184C51.924 47.5733 49.5986 49.3653 46.6546 50.56L57.0866 72H45.6946L37.1826 52.48C35.4333 52.608 33.62 52.672 31.7426 52.672C31.7426 55.9573 31.764 59.1787 31.8066 62.336C31.8493 65.4933 31.9773 68.7147 32.1906 72H21.1186ZM31.7426 42.944C33.0653 43.072 34.2813 43.136 35.3906 43.136C38.292 43.136 40.34 42.6027 41.5346 41.536C42.772 40.4267 43.3906 38.784 43.3906 36.608C43.3906 35.2853 43.1986 34.2187 42.8146 33.408C42.4733 32.5973 41.9826 31.9573 41.3426 31.488C40.7453 31.0187 40.02 30.6987 39.1666 30.528C38.356 30.3573 37.4813 30.272 36.5426 30.272C35.86 30.272 35.092 30.3147 34.2386 30.4C33.428 30.4427 32.596 30.528 31.7426 30.656V42.944Z" fill="white"/>
<path d="M68.1181 56.88C68.5341 58.256 69.2221 59.376 70.1821 60.24C71.1421 61.104 72.4701 61.536 74.1661 61.536C74.6781 61.536 75.2221 61.504 75.7981 61.44C76.4061 61.344 76.9981 61.232 77.5741 61.104C78.1501 60.944 78.6941 60.784 79.2061 60.624C79.7181 60.432 80.1661 60.256 80.5501 60.096C80.6141 61.024 80.6461 62.016 80.6461 63.072C80.6781 64.096 80.6941 65.12 80.6941 66.144C80.6941 67.84 80.6461 69.36 80.5501 70.704C78.0541 71.92 75.2541 72.528 72.1501 72.528C70.7101 72.528 69.2541 72.368 67.7821 72.048C66.3101 71.728 64.8861 71.12 63.5101 70.224C62.2941 69.424 61.2861 68.496 60.4861 67.44C59.7181 66.352 59.1101 65.248 58.6621 64.128C58.2141 62.976 57.9101 61.856 57.7501 60.768C57.5901 59.68 57.5101 58.704 57.5101 57.84C57.5101 56.56 57.6541 55.232 57.9421 53.856C58.2621 52.448 58.7421 51.12 59.3821 49.872C60.0221 48.592 60.8381 47.424 61.8301 46.368C62.8221 45.312 63.9901 44.48 65.3341 43.872C66.9661 43.136 68.6941 42.768 70.5181 42.768C72.4381 42.768 74.1661 43.152 75.7021 43.92C77.2381 44.688 78.4861 45.744 79.4461 47.088C80.3741 48.368 80.9501 49.792 81.1741 51.36C81.4301 52.928 81.5581 54.768 81.5581 56.88H68.1181ZM70.8541 47.952C70.1821 47.952 69.5421 48.24 68.9341 48.816C68.3261 49.36 67.9261 50.336 67.7341 51.744H74.0221C73.8941 50.464 73.5101 49.52 72.8701 48.912C72.2621 48.272 71.5901 47.952 70.8541 47.952Z" fill="white"/>
<path d="M90.8923 69.744C90.8923 70.864 90.7803 71.744 90.5563 72.384C90.3643 73.024 90.0282 73.584 89.5482 74.064C89.1002 74.48 88.5402 74.8 87.8682 75.024C87.1962 75.248 86.3003 75.36 85.1803 75.36H83.6442V72.432H85.5642C86.0122 72.432 86.3803 72.4 86.6683 72.336C86.9563 72.304 87.1802 72.208 87.3402 72.048C87.6922 71.664 87.8682 70.784 87.8682 69.408V41.088C87.8682 39.712 87.6922 38.848 87.3402 38.496C87.1162 38.272 86.8282 38.144 86.4762 38.112C86.1242 38.08 85.6122 38.064 84.9402 38.064H83.6442V35.136H85.1803C86.3003 35.136 87.1962 35.248 87.8682 35.472C88.5402 35.664 89.1002 35.984 89.5482 36.432C90.0282 36.88 90.3643 37.424 90.5563 38.064C90.7803 38.704 90.8923 39.584 90.8923 40.704V69.744Z" fill="white"/>
</svg>
