<svg width="199" height="57" viewBox="0 0 199 57" fill="none" xmlns="http://www.w3.org/2000/svg">
<path d="M0.856003 44V39.008H6.232V5.27999H0.984003V0.287994H16.472V39.008H21.72V44H0.856003ZM36.248 44.576C33.816 44.576 31.832 44.1493 30.296 43.296C28.8027 42.4 27.672 41.1627 26.904 39.584C26.136 38.0053 25.624 36.1493 25.368 34.016L25.048 31.072C24.8347 28.768 24.2587 27.1467 23.32 26.208C22.3813 25.2267 20.9307 24.736 18.968 24.736H16.472V23.328L25.112 23.264C28.696 23.264 31.256 24.1173 32.792 25.824C34.3707 27.488 35.1813 30.0693 35.224 33.568L35.288 35.104C35.3307 36.0427 35.544 36.7893 35.928 37.344C36.312 37.8987 36.952 38.176 37.848 38.176C38.744 38.176 39.384 37.92 39.768 37.408C40.1947 36.8533 40.408 36.0853 40.408 35.104V26.08H46.168V34.4C46.168 37.472 45.4 39.9467 43.864 41.824C42.328 43.6587 39.7893 44.576 36.248 44.576ZM16.472 24.736V19.488H26.392C28.952 19.488 30.9573 18.912 32.408 17.76C33.9013 16.608 34.648 14.8587 34.648 12.512C34.648 10.1653 33.9013 8.41599 32.408 7.264C30.9573 6.112 28.952 5.536 26.392 5.536H16.472V0.287994H29.72C34.328 0.287994 38.0187 1.24799 40.792 3.168C43.608 5.08799 45.016 8.01066 45.016 11.936C45.016 15.776 43.6293 18.656 40.856 20.576C38.0827 22.496 34.4133 23.456 29.848 23.456H24.856L23.448 24.736H16.472Z" fill="black"/>
<path d="M63.5965 44.576C61.0365 44.576 58.7805 44.064 56.8285 43.04C54.8765 42.016 53.3565 40.544 52.2685 38.624C51.1805 36.672 50.6365 34.304 50.6365 31.52C50.6365 28.704 51.1805 26.336 52.2685 24.416C53.3565 22.464 54.8605 20.976 56.7805 19.952C58.7005 18.928 60.8925 18.416 63.3565 18.416L63.5485 22.256C62.3965 22.256 61.3885 22.56 60.5245 23.168C59.6925 23.744 59.0525 24.672 58.6045 25.952C58.1565 27.232 57.9325 28.896 57.9325 30.944C57.9325 33.472 58.5565 35.488 59.8045 36.992C61.0525 38.464 62.7805 39.2 64.9885 39.2C66.2685 39.2 67.3245 38.992 68.1565 38.576C69.0205 38.128 69.6925 37.552 70.1725 36.848C70.6845 36.144 71.0525 35.408 71.2765 34.64H75.5965C75.5005 35.856 75.1805 37.056 74.6365 38.24C74.0925 39.424 73.3245 40.496 72.3325 41.456C71.3725 42.416 70.1565 43.184 68.6845 43.76C67.2445 44.304 65.5485 44.576 63.5965 44.576ZM54.0445 31.664V28.064H68.4925L75.7405 29.936V31.664H54.0445ZM68.4925 28.064C68.4605 26.976 68.2525 26 67.8685 25.136C67.4845 24.24 66.9405 23.536 66.2365 23.024C65.5325 22.512 64.6365 22.256 63.5485 22.256L63.3565 18.416C66.0445 18.416 68.3005 18.912 70.1245 19.904C71.9805 20.864 73.3725 22.208 74.3005 23.936C75.2605 25.664 75.7405 27.664 75.7405 29.936L68.4925 28.064Z" fill="black"/>
<path d="M86.6065 47.456C85.4865 47.456 84.5905 47.344 83.9185 47.12C83.2465 46.896 82.7025 46.576 82.2865 46.16C81.8065 45.68 81.4705 45.12 81.2785 44.48C81.0865 43.84 80.9905 42.96 80.9905 41.84V12.8C80.9905 11.68 81.0865 10.8 81.2785 10.16C81.4705 9.51999 81.8065 8.976 82.2865 8.528C82.7025 8.08 83.2465 7.74399 83.9185 7.51999C84.5905 7.29599 85.4865 7.184 86.6065 7.184H87.9985V10.16H86.8465C86.1745 10.16 85.6625 10.176 85.3105 10.208C84.9585 10.24 84.6865 10.368 84.4945 10.592C84.2705 10.816 84.1265 11.168 84.0625 11.648C83.9985 12.096 83.9665 12.672 83.9665 13.376V41.456C83.9665 42.192 83.9985 42.768 84.0625 43.184C84.1265 43.568 84.2705 43.872 84.4945 44.096C84.6865 44.32 84.9585 44.448 85.3105 44.48C85.6625 44.512 86.1745 44.528 86.8465 44.528H87.9985V47.456H86.6065Z" fill="#3856BB"/>
<path d="M103.373 22.208V48.176C103.373 50.704 102.653 52.752 101.213 54.32C99.7731 55.92 97.4531 56.72 94.2531 56.72C92.6851 56.72 91.1811 56.432 89.7411 55.856C88.3331 55.28 87.1651 54.512 86.2371 53.552L87.2931 52.064C88.6691 53.248 90.2851 53.84 92.1411 53.84C94.8291 53.84 96.1731 52.08 96.1731 48.56V21.584C94.4131 22.032 93.0691 22.816 92.1411 23.936L90.8451 22.448C91.7731 21.488 92.9411 20.72 94.3491 20.144C95.7891 19.568 97.1971 19.28 98.5731 19.28C99.9811 19.28 101.133 19.568 102.029 20.144C102.925 20.688 103.373 21.376 103.373 22.208ZM97.0371 14.576C96.3011 13.808 95.9331 12.896 95.9331 11.84C95.9331 10.784 96.3011 9.888 97.0371 9.152C97.8051 8.38399 98.7171 7.99999 99.7731 7.99999C100.829 7.99999 101.725 8.38399 102.461 9.152C103.229 9.888 103.613 10.784 103.613 11.84C103.613 12.896 103.229 13.808 102.461 14.576C101.725 15.312 100.829 15.68 99.7731 15.68C98.7171 15.68 97.8051 15.312 97.0371 14.576Z" fill="#3856BB"/>
<path d="M116.564 41.744C116.564 42.864 116.452 43.744 116.228 44.384C116.036 45.024 115.7 45.584 115.22 46.064C114.772 46.48 114.212 46.8 113.54 47.024C112.868 47.248 111.972 47.36 110.852 47.36H109.316V44.432H111.236C111.684 44.432 112.052 44.4 112.34 44.336C112.628 44.304 112.852 44.208 113.012 44.048C113.364 43.664 113.54 42.784 113.54 41.408V13.088C113.54 11.712 113.364 10.848 113.012 10.496C112.788 10.272 112.5 10.144 112.148 10.112C111.796 10.08 111.284 10.064 110.612 10.064H109.316V7.136H110.852C111.972 7.136 112.868 7.248 113.54 7.47199C114.212 7.66399 114.772 7.98399 115.22 8.43199C115.7 8.87999 116.036 9.42399 116.228 10.064C116.452 10.704 116.564 11.584 116.564 12.704V41.744Z" fill="#3856BB"/>
<path d="M134.284 44.576C131.724 44.576 129.468 44.064 127.516 43.04C125.564 42.016 124.044 40.544 122.956 38.624C121.868 36.672 121.324 34.304 121.324 31.52C121.324 28.704 121.868 26.336 122.956 24.416C124.044 22.464 125.548 20.976 127.468 19.952C129.388 18.928 131.58 18.416 134.044 18.416L134.236 22.256C133.084 22.256 132.076 22.56 131.212 23.168C130.38 23.744 129.74 24.672 129.292 25.952C128.844 27.232 128.62 28.896 128.62 30.944C128.62 33.472 129.244 35.488 130.492 36.992C131.74 38.464 133.468 39.2 135.676 39.2C136.956 39.2 138.012 38.992 138.844 38.576C139.708 38.128 140.38 37.552 140.86 36.848C141.372 36.144 141.74 35.408 141.964 34.64H146.284C146.188 35.856 145.868 37.056 145.324 38.24C144.78 39.424 144.012 40.496 143.02 41.456C142.06 42.416 140.844 43.184 139.372 43.76C137.932 44.304 136.236 44.576 134.284 44.576ZM124.732 31.664V28.064H139.18L146.428 29.936V31.664H124.732ZM139.18 28.064C139.148 26.976 138.94 26 138.556 25.136C138.172 24.24 137.628 23.536 136.924 23.024C136.22 22.512 135.324 22.256 134.236 22.256L134.044 18.416C136.732 18.416 138.988 18.912 140.812 19.904C142.668 20.864 144.06 22.208 144.988 23.936C145.948 25.664 146.428 27.664 146.428 29.936L139.18 28.064Z" fill="black"/>
<path d="M150.542 44V39.008H154.702L171.086 19.232H179.022L194.51 39.008H198.542V44H175.502V39.008H181.71L170.766 24.736H174.094L162.446 39.008H168.526V44H150.542ZM169.486 23.712L155.022 5.34399H151.118V0.351994H173.71V5.34399H167.822L177.742 18.208H174.414L184.91 5.34399H179.15V0.351994H196.686V5.34399H192.654L177.422 23.712H169.486Z" fill="black"/>
</svg>
